<svg width="122" height="123" viewBox="0 0 122 123" fill="none" xmlns="http://www.w3.org/2000/svg">
  <circle r="61" transform="matrix(1 0 0 -1 61 61.4219)" fill="white"/>
  <rect x="31.5" y="30.4219" width="46" height="59" rx="6" fill="#143243" fill-opacity="0.2"/>
  <path d="M75.25 45.4219H56.25C54.9902 45.4219 53.782 45.9171 52.8912 46.7985C52.0004 47.6799 51.5 48.8754 51.5 50.1219V87.7219C51.5 88.9684 52.0004 90.1639 52.8912 91.0453C53.782 91.9267 54.9902 92.4219 56.25 92.4219H84.75C86.0098 92.4219 87.218 91.9267 88.1088 91.0453C88.9996 90.1639 89.5 88.9684 89.5 87.7219V59.5219L75.25 45.4219Z" fill="#6E808B"/>
  <path d="M75.5 45.4219V57.4219C75.5 58.5264 76.3954 59.4219 77.5 59.4219H89.5" fill="#143243"/>
  <path d="M79.5 71.4219H60.5" stroke="#143243" stroke-width="3" stroke-linecap="round" stroke-linejoin="round"/>
  <path d="M79.5 81.4219H60.5" stroke="#143243" stroke-width="3" stroke-linecap="round" stroke-linejoin="round"/>
  <path d="M66.5 62.4219H63.5H60.5" stroke="#143243" stroke-width="3" stroke-linecap="round" stroke-linejoin="round"/>
</svg>
