<svg width="122" height="123" viewBox="0 0 122 123" fill="none" xmlns="http://www.w3.org/2000/svg">
  <circle r="61" transform="matrix(1 0 0 -1 61 61.4219)" fill="white"/>
  <path d="M60 37.4219C60 35.2127 58.201 33.394 56.0121 33.6926C51.5923 34.2957 47.3485 35.896 43.6107 38.3935C38.7594 41.635 34.9783 46.2423 32.7456 51.6327C30.5128 57.0231 29.9286 62.9546 31.0668 68.677C32.2051 74.3995 35.0147 79.6559 39.1403 83.7815C43.266 87.9072 48.5224 90.7168 54.2448 91.855C59.9673 92.9933 65.8987 92.4091 71.2892 90.1763C76.6796 87.9435 81.2869 84.1624 84.5284 79.3112C87.0259 75.5734 88.6262 71.3296 89.2292 66.9097C89.5279 64.7209 87.7091 62.9219 85.5 62.9219L64 62.9219C61.7909 62.9219 60 61.131 60 58.9219L60 37.4219Z" fill="#143243" fill-opacity="0.4"/>
  <path d="M89.5 55.9219C91.7091 55.9219 93.5303 54.1214 93.2044 51.9364C92.8703 49.696 92.2549 47.4995 91.3686 45.3981C89.9615 42.0616 87.899 39.03 85.299 36.4764C82.6989 33.9228 79.6123 31.8972 76.2151 30.5152C74.0533 29.6357 71.7927 29.0279 69.4869 28.7021C67.2995 28.393 65.5 30.2127 65.5 32.4219L65.5 51.9219C65.5 54.131 67.2909 55.9219 69.5 55.9219L89.5 55.9219Z" fill="#143243"/>
</svg>
