<svg width="122" height="123" viewBox="0 0 122 123" fill="none" xmlns="http://www.w3.org/2000/svg">
  <circle r="61" transform="matrix(1 0 0 -1 61 61.4219)" fill="white"/>
  <path d="M97.7526 48.6415H94.7449V45.7009C94.7449 44.4455 93.738 43.4219 92.4974 43.4219C91.2594 43.4219 90.25 44.4455 90.25 45.7009V48.6415H87.2474C86.0068 48.6415 85 49.6651 85 50.9206C85 52.176 86.0068 53.1996 87.2474 53.1996H90.25V56.1428C90.25 57.3983 91.2594 58.4219 92.4974 58.4219C93.738 58.4219 94.7449 57.3983 94.7449 56.1428V53.1996H97.7526C98.9906 53.1996 100 52.176 100 50.9206C100 49.6651 98.9906 48.6415 97.7526 48.6415Z" fill="#143243"/>
  <path d="M51.542 67.4219C41.137 67.4219 32.25 69.0292 32.25 75.4534C32.25 81.8827 41.0805 83.5453 51.542 83.5453C61.947 83.5453 70.834 81.938 70.834 75.5138C70.834 69.0845 62.0035 67.4219 51.542 67.4219Z" fill="#143243"/>
  <path opacity="0.4" d="M51.5418 61.2995C58.6283 61.2995 64.3072 55.7381 64.3072 48.7982C64.3072 41.8583 58.6283 36.2969 51.5418 36.2969C44.4579 36.2969 38.7764 41.8583 38.7764 48.7982C38.7764 55.7381 44.4579 61.2995 51.5418 61.2995Z" fill="#143243"/>
  <path opacity="0.4" d="M69.4553 49.0228C69.4553 52.5569 68.3714 55.8545 66.4707 58.5937C66.2729 58.8754 66.4476 59.2553 66.7918 59.3156C67.2695 59.3936 67.7601 59.4414 68.2609 59.4515C73.2438 59.5797 77.7156 56.4381 78.951 51.7067C80.7824 44.6863 75.4091 38.3828 68.564 38.3828C67.8217 38.3828 67.1103 38.4583 66.4168 38.5966C66.3217 38.6167 66.219 38.662 66.1676 38.7425C66.1008 38.8456 66.1496 38.979 66.2164 39.067C68.2738 41.8917 69.4553 45.3302 69.4553 49.0228Z" fill="#143243"/>
  <path d="M84.1704 68.2427C83.2586 66.3386 81.0574 65.0331 77.7081 64.3917C76.1284 64.0144 71.8493 63.4786 67.8707 63.5541C67.8116 63.5616 67.7783 63.6018 67.7731 63.627C67.7654 63.6672 67.7834 63.7276 67.8604 63.7704C69.6995 64.6608 76.8065 68.5345 75.9127 76.7043C75.8742 77.0615 76.1644 77.3634 76.5266 77.3131C78.2757 77.0691 82.7757 76.1208 84.1704 73.1728C84.9435 71.6133 84.9435 69.8022 84.1704 68.2427Z" fill="#143243"/>
</svg>
