<svg width="54" height="20" viewBox="0 0 54 20" fill="none" xmlns="http://www.w3.org/2000/svg">
  <path d="M6.5678 3.52778C5.7139 3.52778 4.97809 3.84259 4.36037 4.47222C3.76082 5.08333 3.46104 5.82407 3.46104 6.69444V7.77778H6.5678V10.7222H3.46104V19.6667H0V6.69444C0 4.84259 0.635887 3.26852 1.90766 1.97222C3.1976 0.657407 4.75098 0 6.5678 0H7.49438V3.52778H6.5678Z" fill="#143243" fill-opacity="0.4"/>
  <path d="M9.6388 7.86111C10.9287 6.5463 12.473 5.88889 14.2717 5.88889C16.0885 5.88889 17.6328 6.5463 18.9046 7.86111C20.1945 9.17593 20.8395 10.75 20.8395 12.5833V13.3056C20.8395 15.1389 20.1945 16.713 18.9046 18.0278C17.6328 19.3426 16.0885 20 14.2717 20C12.473 20 10.9287 19.3426 9.6388 18.0278C8.36702 16.713 7.73114 15.1389 7.73114 13.3056V12.5833C7.73114 10.75 8.36702 9.17593 9.6388 7.86111ZM17.3784 13.3056V12.5833C17.3784 11.713 17.0696 10.9722 16.4519 10.3611C15.8523 9.73148 15.1256 9.41667 14.2717 9.41667C13.4359 9.41667 12.7092 9.73148 12.0915 10.3611C11.492 10.9722 11.1922 11.713 11.1922 12.5833V13.3056C11.1922 14.1759 11.492 14.9167 12.0915 15.5278C12.7092 16.1389 13.4359 16.4444 14.2717 16.4444C15.1256 16.4444 15.8523 16.1389 16.4519 15.5278C17.0696 14.9167 17.3784 14.1759 17.3784 13.3056Z" fill="#143243" fill-opacity="0.4"/>
  <path d="M26.4286 19.6667H22.9675V0.333332H26.4286V19.6667Z" fill="#143243" fill-opacity="0.4"/>
  <path d="M32.6035 19.6667H29.1152V6.22222H32.6035V19.6667ZM30.8594 4C30.496 4 30.1599 3.91667 29.8511 3.75C29.5604 3.56481 29.3242 3.32407 29.1425 3.02778C28.979 2.71296 28.8972 2.37037 28.8972 2C28.8972 1.44444 29.088 0.972222 29.4695 0.583332C29.8511 0.194444 30.3143 0 30.8594 0C31.4044 0 31.8677 0.194444 32.2493 0.583332C32.6308 0.972222 32.8216 1.44444 32.8216 2C32.8216 2.55556 32.6308 3.02778 32.2493 3.41667C31.8677 3.80556 31.4044 4 30.8594 4Z" fill="#143243" fill-opacity="0.4"/>
  <path d="M38.7779 19.6667H35.2896V6.22222H38.7779V19.6667ZM37.0337 4C36.6704 4 36.3343 3.91667 36.0254 3.75C35.7347 3.56481 35.4985 3.32407 35.3168 3.02778C35.1533 2.71296 35.0716 2.37037 35.0716 2C35.0716 1.44444 35.2623 0.972222 35.6439 0.583332C36.0254 0.194444 36.4887 0 37.0337 0C37.5788 0 38.0421 0.194444 38.4236 0.583332C38.8051 0.972222 38.9959 1.44444 38.9959 2C38.9959 2.55556 38.8051 3.02778 38.4236 3.41667C38.0421 3.80556 37.5788 4 37.0337 4Z" fill="#143243" fill-opacity="0.4"/>
  <path d="M42.7993 7.86111C44.0892 6.5463 45.6335 5.88889 47.4322 5.88889C49.249 5.88889 50.7933 6.5463 52.0651 7.86111C53.355 9.17593 54 10.75 54 12.5833V13.3056C54 15.1389 53.355 16.713 52.0651 18.0278C50.7933 19.3426 49.249 20 47.4322 20C45.6335 20 44.0892 19.3426 42.7993 18.0278C41.5275 16.713 40.8916 15.1389 40.8916 13.3056V12.5833C40.8916 10.75 41.5275 9.17593 42.7993 7.86111ZM50.539 13.3056V12.5833C50.539 11.713 50.2301 10.9722 49.6124 10.3611C49.0128 9.73148 48.2861 9.41667 47.4322 9.41667C46.5965 9.41667 45.8697 9.73148 45.252 10.3611C44.6525 10.9722 44.3527 11.713 44.3527 12.5833V13.3056C44.3527 14.1759 44.6525 14.9167 45.252 15.5278C45.8697 16.1389 46.5965 16.4444 47.4322 16.4444C48.2861 16.4444 49.0128 16.1389 49.6124 15.5278C50.2301 14.9167 50.539 14.1759 50.539 13.3056Z" fill="#143243" fill-opacity="0.4"/>
</svg>
