<svg xmlns="http://www.w3.org/2000/svg" width="40" height="40" viewBox="0 0 40 40">
    <g fill="none" fill-rule="evenodd" stroke="#000">
        <path stroke-width="1.8" d="M8.99.9c-.553 0-1.008.18-1.355.563-.428.473-.699 1.194-.868 2.133-.036.201-.065.395-.084.58-.182.031-.368.073-.556.126-1.101.313-1.895.908-2.458 1.74C2.979 7.06 2.621 8.4 2.423 9.959l-.53 5.88c-.355.067-.665.277-.842.573-.096.161-.151.347-.151.547 0 .312.133.593.343.797.221.214.527.344.864.344h13.785c.337 0 .643-.13.865-.344.21-.204.343-.485.343-.797 0-.202-.057-.39-.154-.552-.181-.299-.5-.509-.86-.572l-.561-6.204c-.182-1.4-.537-2.662-1.23-3.639-.56-.792-1.352-1.38-2.445-1.69-.188-.053-.374-.095-.556-.126-.02-.185-.048-.38-.084-.58-.169-.94-.44-1.66-.867-2.133C9.996 1.079 9.54.9 8.989.9z" transform="translate(11 9)"/>
        <path stroke-linecap="round" stroke-linejoin="round" stroke-width="1.6" d="M6 18c.02.959.437 1.899 1.23 2.505 1.345 1.029 3.225.714 4.201-.706.374-.545.557-1.173.569-1.799M5 5c2-1 6-1 8 0" transform="translate(11 9)"/>
    </g>
</svg>
