<svg xmlns="http://www.w3.org/2000/svg" width="40" height="40" viewBox="0 0 40 40">
    <g fill="none" fill-rule="evenodd" opacity=".15" transform="translate(10 10)">
        <path fill="#000" d="M9.808 0c.272 0 .542.01.81.032l1.013 3.924 3.043-2.694c.585.326 1.135.71 1.64 1.144L14.82 6.19l4.064-.393c.277.597.497 1.226.652 1.88l-3.448 2.194 3.53 2.078c-.13.658-.325 1.293-.577 1.898l-4.091-.252 1.636 3.758c-.486.448-1.016.848-1.584 1.194l-3.162-2.609-.883 3.997c-.377.043-.76.065-1.15.065-.282 0-.562-.012-.838-.035l-1.022-3.959-3.054 2.705c-.582-.33-1.128-.715-1.63-1.15l1.494-3.788-4.044.391C.437 13.563.22 12.93.067 12.271l3.423-2.18L0 8.038c.132-.666.331-1.308.589-1.92l4.04.25L3.014 2.66c.49-.454 1.027-.86 1.602-1.21l3.12 2.573.875-3.953C9.004.024 9.403 0 9.808 0zm0 4.118c-3.25 0-5.883 2.633-5.883 5.882 0 3.249 2.634 5.882 5.883 5.882 3.248 0 5.882-2.633 5.882-5.882 0-3.249-2.634-5.882-5.882-5.882z"/>
        <circle cx="9.808" cy="10" r="6.882" stroke="#000" stroke-width="2"/>
    </g>
</svg>
