<svg width="40" height="40" viewBox="0 0 40 40" fill="none" xmlns="http://www.w3.org/2000/svg">
<circle cx="20" cy="20" r="20" fill="white"/>
<g opacity="0.3">
<path fill-rule="evenodd" clip-rule="evenodd" d="M12.3671 13H27.633C28.388 13 29.0001 13.6242 29.0001 14.3942V25.6058C29.0001 26.3758 28.388 27 27.633 27H12.3671C11.6121 27 11.0001 26.3758 11.0001 25.6058V14.3942C11.0001 13.6242 11.6121 13 12.3671 13ZM27.0775 14.5001H12.9226C12.6892 14.5001 12.5001 14.6886 12.5001 14.9212V25.0791C12.5001 25.3116 12.6892 25.5001 12.9226 25.5001H12.963L16.1615 18.4028C16.373 17.9335 16.9313 17.7217 17.4085 17.9297C17.6231 18.0232 17.7946 18.1918 17.8897 18.4028L20.4666 24.121L21.9542 20.903C22.1702 20.4357 22.7305 20.229 23.2057 20.4415C23.4137 20.5344 23.5805 20.6984 23.675 20.903L25.7999 25.5001H27.0775C27.3109 25.5001 27.5001 25.3116 27.5001 25.0791V14.9212C27.5001 14.6886 27.3109 14.5001 27.0775 14.5001ZM24.9958 18.4999C25.8243 18.4999 26.4958 17.8283 26.4958 16.9999C26.4958 16.1715 25.8243 15.4999 24.9958 15.4999C24.1674 15.4999 23.4958 16.1715 23.4958 16.9999C23.4958 17.8283 24.1674 18.4999 24.9958 18.4999Z" fill="black"/>
</g>
</svg>
