<svg width="55" height="21" viewBox="0 0 55 21" fill="none" xmlns="http://www.w3.org/2000/svg">
  <path d="M6.68943 3.70417C5.81971 3.70417 5.07027 4.03472 4.44112 4.69583C3.83046 5.3375 3.52514 6.11528 3.52514 7.02917V8.16667H6.68943V11.2583H3.52514V20.65H0V7.02917C0 5.08472 0.647663 3.43194 1.94299 2.07083C3.25682 0.690277 4.83897 0 6.68943 0H7.63317V3.70417H6.68943Z" fill="#20D9E5"/>
  <path d="M9.81729 8.25417C11.1311 6.87361 12.704 6.18333 14.536 6.18333C16.3864 6.18333 17.9593 6.87361 19.2547 8.25417C20.5685 9.63472 21.2254 11.2875 21.2254 13.2125V13.9708C21.2254 15.8958 20.5685 17.5486 19.2547 18.9292C17.9593 20.3097 16.3864 21 14.536 21C12.704 21 11.1311 20.3097 9.81729 18.9292C8.52197 17.5486 7.8743 15.8958 7.8743 13.9708V13.2125C7.8743 11.2875 8.52197 9.63472 9.81729 8.25417ZM17.7003 13.9708V13.2125C17.7003 12.2986 17.3857 11.5208 16.7565 10.8792C16.1459 10.2181 15.4057 9.8875 14.536 9.8875C13.6848 9.8875 12.9446 10.2181 12.3154 10.8792C11.7048 11.5208 11.3994 12.2986 11.3994 13.2125V13.9708C11.3994 14.8847 11.7048 15.6625 12.3154 16.3042C12.9446 16.9458 13.6848 17.2667 14.536 17.2667C15.4057 17.2667 16.1459 16.9458 16.7565 16.3042C17.3857 15.6625 17.7003 14.8847 17.7003 13.9708Z" fill="#20D9E5"/>
  <path d="M26.918 20.65H23.3928V0.349999H26.918V20.65Z" fill="#20D9E5"/>
  <path d="M33.2073 20.65H29.6544V6.53333H33.2073V20.65ZM31.4309 4.2C31.0608 4.2 30.7184 4.1125 30.4039 3.9375C30.1078 3.74306 29.8672 3.49028 29.6822 3.17917C29.5156 2.84861 29.4324 2.48889 29.4324 2.1C29.4324 1.51667 29.6267 1.02083 30.0153 0.612499C30.4039 0.204166 30.8757 0 31.4309 0C31.986 0 32.4579 0.204166 32.8465 0.612499C33.2351 1.02083 33.4294 1.51667 33.4294 2.1C33.4294 2.68333 33.2351 3.17917 32.8465 3.5875C32.4579 3.99583 31.986 4.2 31.4309 4.2Z" fill="#20D9E5"/>
  <path d="M39.496 20.65H35.9431V6.53333H39.496V20.65ZM37.7196 4.2C37.3495 4.2 37.0071 4.1125 36.6925 3.9375C36.3965 3.74306 36.1559 3.49028 35.9709 3.17917C35.8043 2.84861 35.7211 2.48889 35.7211 2.1C35.7211 1.51667 35.9153 1.02083 36.3039 0.612499C36.6925 0.204166 37.1644 0 37.7196 0C38.2747 0 38.7466 0.204166 39.1352 0.612499C39.5238 1.02083 39.7181 1.51667 39.7181 2.1C39.7181 2.68333 39.5238 3.17917 39.1352 3.5875C38.7466 3.99583 38.2747 4.2 37.7196 4.2Z" fill="#20D9E5"/>
  <path d="M43.5919 8.25417C44.9057 6.87361 46.4786 6.18333 48.3106 6.18333C50.161 6.18333 51.7339 6.87361 53.0293 8.25417C54.3431 9.63472 55 11.2875 55 13.2125V13.9708C55 15.8958 54.3431 17.5486 53.0293 18.9292C51.7339 20.3097 50.161 21 48.3106 21C46.4786 21 44.9057 20.3097 43.5919 18.9292C42.2966 17.5486 41.6489 15.8958 41.6489 13.9708V13.2125C41.6489 11.2875 42.2966 9.63472 43.5919 8.25417ZM51.4749 13.9708V13.2125C51.4749 12.2986 51.1603 11.5208 50.5311 10.8792C49.9205 10.2181 49.1803 9.8875 48.3106 9.8875C47.4594 9.8875 46.7192 10.2181 46.09 10.8792C45.4794 11.5208 45.174 12.2986 45.174 13.2125V13.9708C45.174 14.8847 45.4794 15.6625 46.09 16.3042C46.7192 16.9458 47.4594 17.2667 48.3106 17.2667C49.1803 17.2667 49.9205 16.9458 50.5311 16.3042C51.1603 15.6625 51.4749 14.8847 51.4749 13.9708Z" fill="#20D9E5"/>
</svg>
