<svg width="78" height="78" viewBox="0 0 78 78" fill="none" xmlns="http://www.w3.org/2000/svg">
  <circle cx="39" cy="39" r="39" fill="#E3EAF0"/>
  <path d="M44.0057 16.315H25.5457C24.3217 16.315 23.1478 16.8012 22.2824 17.6667C21.4169 18.5322 20.9307 19.706 20.9307 20.93V57.85C20.9307 59.074 21.4169 60.2478 22.2824 61.1133C23.1478 61.9788 24.3217 62.465 25.5457 62.465H53.2357C54.4596 62.465 55.6335 61.9788 56.499 61.1133C57.3644 60.2478 57.8507 59.074 57.8507 57.85V30.16L44.0057 16.315Z" fill="white"/>
  <path d="M44.0049 16.315V28.16C44.0049 29.2646 44.9003 30.16 46.0049 30.16H57.8499" fill="#E3EAF0" fill-opacity="0.5"/>
  <path d="M48.6202 41.6975H30.1602" stroke="#143243" stroke-opacity="0.2" stroke-width="4" stroke-linecap="round" stroke-linejoin="round"/>
  <path d="M48.6202 50.9275H30.1602" stroke="#143243" stroke-opacity="0.2" stroke-width="4" stroke-linecap="round" stroke-linejoin="round"/>
  <path d="M34.7752 32.4675H32.4677H30.1602" stroke="#143243" stroke-opacity="0.2" stroke-width="4" stroke-linecap="round" stroke-linejoin="round"/>
</svg>
