<svg width="14" height="15" viewBox="0 0 14 15" fill="none" xmlns="http://www.w3.org/2000/svg">
  <g clip-path="url(#clip0)">
    <path d="M12.5068 6.94489L7.14592 12.3057C6.48918 12.9625 5.59844 13.3314 4.66967 13.3314C3.7409 13.3314 2.85016 12.9625 2.19342 12.3057C1.53668 11.649 1.16772 10.7582 1.16772 9.82947C1.16772 8.9007 1.53668 8.00997 2.19342 7.35322L7.55425 1.99239C7.99208 1.55456 8.58591 1.30859 9.20509 1.30859C9.82427 1.30859 10.4181 1.55456 10.8559 1.99239C11.2937 2.43022 11.5397 3.02404 11.5397 3.64322C11.5397 4.26241 11.2937 4.85623 10.8559 5.29406L5.48925 10.6549C5.27034 10.8738 4.97343 10.9968 4.66384 10.9968C4.35425 10.9968 4.05733 10.8738 3.83842 10.6549C3.61951 10.436 3.49652 10.1391 3.49652 9.82947C3.49652 9.51988 3.61951 9.22297 3.83842 9.00406L8.79092 4.05739" stroke="#20D9E5" stroke-linecap="round" stroke-linejoin="round"/>
  </g>
  <defs>
    <clipPath id="clip0">
      <rect width="14" height="14" fill="white" transform="translate(0 0.5)"/>
    </clipPath>
  </defs>
</svg>
